<?xml version="1.0" standalone="no"?>
<!DOCTYPE svg PUBLIC "-//W3C//DTD SVG 20010904//EN"
 "http://www.w3.org/TR/2001/REC-SVG-20010904/DTD/svg10.dtd">
<svg version="1.0" xmlns="http://www.w3.org/2000/svg"
 width="512.000000pt" height="512.000000pt" viewBox="0 0 512.000000 512.000000"
 preserveAspectRatio="xMidYMid meet">
<metadata>
Created by potrace 1.16, written by Peter Selinger 2001-2019
</metadata>
<g transform="translate(0.000000,512.000000) scale(0.100000,-0.100000)"
fill="#000000" stroke="none">
<path d="M1730 4804 c-566 -82 -1072 -402 -1392 -878 -178 -266 -289 -568
-329 -889 -19 -162 -7 -483 26 -637 131 -625 537 -1149 1099 -1420 292 -141
557 -200 889 -200 330 1 594 60 883 200 616 298 1041 896 1125 1583 19 162 7
483 -26 637 -65 310 -203 611 -391 851 -24 30 -44 58 -44 61 0 9 117 53 195
74 54 14 104 18 220 18 133 -1 160 -4 240 -28 270 -81 470 -247 594 -493 101
-201 120 -485 47 -701 -60 -176 -130 -276 -314 -450 -158 -150 -232 -241 -304
-377 -183 -349 -204 -745 -58 -1111 83 -210 243 -415 434 -557 115 -84 313
-180 385 -185 51 -4 59 -1 84 23 22 23 27 37 27 75 0 62 -19 81 -136 129 -152
63 -262 138 -380 263 -87 92 -143 172 -194 281 -174 365 -131 790 111 1118 27
36 111 125 188 198 77 72 162 162 189 199 102 137 178 314 207 480 17 97 20
298 5 389 -81 501 -480 886 -987 954 -194 26 -428 -7 -606 -86 -45 -20 -89
-39 -97 -41 -9 -3 -44 21 -85 56 -102 89 -292 213 -430 280 -198 96 -386 154
-607 185 -129 18 -438 18 -568 -1z m575 -214 c134 -21 254 -54 369 -99 93 -37
256 -120 313 -159 l43 -28 -98 -23 c-53 -13 -148 -39 -210 -58 l-114 -34 -81
74 c-114 102 -225 192 -341 276 l-98 71 48 0 c27 0 103 -9 169 -20z m-385
-128 c109 -70 327 -234 405 -305 l60 -55 -65 -28 c-36 -15 -112 -52 -170 -81
-58 -29 -108 -53 -112 -53 -4 0 -49 33 -100 73 -172 133 -467 312 -635 383
-34 15 -63 30 -63 34 0 21 260 115 395 143 l70 15 65 -36 c36 -19 103 -60 150
-90z m-850 -197 c197 -75 489 -238 678 -377 l93 -69 -83 -56 c-45 -30 -114
-79 -152 -108 l-70 -52 -90 62 c-178 123 -445 259 -650 331 l-109 38 69 65
c84 78 225 191 239 191 5 0 39 -11 75 -25z m2255 -207 c37 -40 80 -89 96 -109
l29 -36 -58 -7 c-101 -12 -303 -56 -447 -97 -696 -201 -1334 -660 -1762 -1269
-181 -257 -342 -584 -435 -882 -18 -59 -36 -108 -39 -108 -7 0 -136 155 -167
203 -23 35 -24 40 -13 80 49 164 216 514 341 715 419 672 1078 1192 1830 1445
174 59 467 132 542 136 9 1 46 -31 83 -71z m-2658 -242 c208 -70 416 -170 600
-288 51 -33 93 -64 91 -68 -2 -3 -59 -61 -128 -128 l-126 -120 -99 60 c-176
105 -357 188 -552 253 l-82 26 40 82 c54 106 127 217 144 217 7 0 58 -15 112
-34z m2973 -206 c42 -86 52 -113 42 -119 -8 -5 -48 -11 -89 -15 -108 -9 -348
-59 -488 -101 -969 -294 -1719 -1080 -1964 -2058 -11 -43 -22 -81 -24 -84 -6
-5 -153 90 -200 129 l-27 23 24 90 c179 660 586 1248 1151 1665 315 232 677
403 1060 498 119 30 343 71 445 81 11 0 34 -36 70 -109z m-3214 -301 c135 -46
328 -136 456 -211 l86 -51 -52 -66 c-40 -50 -130 -172 -162 -219 -1 -2 -28 13
-59 33 -79 51 -300 158 -397 192 l-79 28 6 45 c17 123 61 290 75 290 4 0 61
-18 126 -41z m3354 -70 c6 -23 17 -75 24 -115 l13 -74 -31 -4 c-17 -2 -85 -12
-151 -21 -505 -69 -1019 -328 -1390 -700 -233 -233 -431 -534 -554 -842 -43
-108 -104 -308 -116 -381 -4 -24 -13 -46 -21 -49 -8 -3 -64 12 -124 32 -78 27
-110 43 -110 54 0 31 49 217 83 316 198 579 561 1052 1065 1389 250 167 571
304 877 376 111 26 314 58 377 59 47 1 47 1 58 -40z m50 -501 c0 -174 -60
-466 -127 -614 l-19 -41 -18 109 c-25 156 -104 458 -153 584 -5 14 58 30 192
48 55 8 106 14 113 15 9 1 12 -26 12 -101z m-3505 10 c77 -32 216 -105 276
-145 l38 -25 -30 -52 c-49 -83 -142 -273 -189 -384 -44 -103 -44 -103 -58 -76
-33 63 -94 253 -117 367 -14 67 -28 175 -32 241 l-6 118 24 -7 c13 -4 56 -21
94 -37z m3023 -150 c78 -249 130 -504 150 -733 l9 -100 -53 -70 c-29 -38 -89
-108 -133 -155 l-80 -85 -1 60 c0 89 -27 323 -51 454 -28 156 -71 320 -126
476 -45 132 -58 175 -52 175 2 0 65 25 139 55 74 30 140 55 146 55 6 0 29 -60
52 -132z m-472 -258 c92 -274 142 -557 151 -851 l6 -195 -69 -41 c-65 -38
-189 -103 -197 -103 -2 0 -7 78 -10 173 -11 303 -76 632 -177 893 -16 43 -30
84 -30 91 0 11 148 127 225 175 l40 25 13 -31 c7 -17 29 -78 48 -136z m-441
-359 c76 -257 115 -515 115 -767 l0 -152 -67 -17 c-38 -9 -98 -23 -135 -30
l-68 -13 0 92 c0 201 -51 501 -121 714 l-21 63 59 77 c32 42 85 105 117 140
60 63 60 63 72 39 7 -13 29 -78 49 -146z m-421 -446 c30 -129 47 -259 53 -401
6 -136 5 -141 -14 -146 -23 -6 -273 8 -280 16 -8 8 47 214 83 315 49 135 126
303 134 294 4 -4 15 -39 24 -78z"/>
</g>
</svg>
