<?xml version="1.0" standalone="no"?>
<!DOCTYPE svg PUBLIC "-//W3C//DTD SVG 20010904//EN"
 "http://www.w3.org/TR/2001/REC-SVG-20010904/DTD/svg10.dtd">
<svg version="1.0" xmlns="http://www.w3.org/2000/svg"
 width="512.000000pt" height="512.000000pt" viewBox="0 0 512.000000 512.000000"
 preserveAspectRatio="xMidYMid meet">
<metadata>
Created by potrace 1.16, written by Peter Selinger 2001-2019
</metadata>
<g transform="translate(0.000000,512.000000) scale(0.100000,-0.100000)"
fill="#000000" stroke="none">
<path d="M3491 5064 c-19 -24 -21 -40 -21 -149 0 -109 2 -125 21 -149 26 -33
88 -37 119 -6 18 18 20 33 20 155 0 122 -2 137 -20 155 -31 31 -93 27 -119 -6z"/>
<path d="M2715 4835 c-16 -15 -25 -35 -25 -56 0 -28 14 -47 93 -126 79 -79 98
-93 126 -93 43 0 81 38 81 81 0 28 -14 47 -93 126 -79 79 -98 93 -126 93 -21
0 -41 -9 -56 -25z"/>
<path d="M4212 4767 c-81 -82 -92 -96 -92 -128 0 -46 33 -79 79 -79 28 0 46
13 113 78 44 42 87 90 95 106 28 53 -10 116 -70 116 -28 0 -46 -13 -125 -93z"/>
<path d="M3432 4589 c-234 -30 -438 -168 -530 -359 -54 -109 -73 -187 -75
-305 l-2 -95 -40 -11 c-22 -5 -74 -21 -115 -35 -107 -37 -119 -38 -174 -15
-122 53 -378 102 -657 126 -202 18 -229 14 -249 -34 -14 -35 -4 -78 24 -96 13
-9 74 -18 154 -25 271 -22 478 -57 625 -107 l82 -28 3 -1393 c1 -765 -1 -1392
-5 -1392 -5 0 -37 9 -73 21 -240 75 -545 113 -910 112 -343 -1 -618 -37 -859
-112 l-91 -29 2 1391 3 1391 30 18 c45 25 265 84 386 102 57 8 162 20 234 26
109 9 134 15 152 32 29 27 30 77 4 109 -18 22 -26 24 -108 22 -294 -8 -692
-96 -787 -175 -46 -38 -75 -98 -76 -154 l0 -41 -66 -12 c-128 -23 -225 -96
-281 -209 l-28 -57 -3 -1418 c-2 -1409 -2 -1417 18 -1478 40 -119 126 -221
229 -273 113 -58 45 -56 1678 -56 l1502 0 20 26 c34 43 21 102 -26 123 -16 7
-147 11 -403 11 l-380 0 0 110 0 110 973 2 974 3 48 30 c33 21 57 47 79 85
l31 55 3 1393 2 1392 28 -6 c74 -18 135 -66 163 -129 18 -38 19 -107 19 -1412
0 -1350 0 -1373 -20 -1426 -29 -76 -79 -130 -158 -169 l-67 -33 -508 -5 -509
-5 -19 -24 c-25 -31 -25 -85 1 -111 19 -19 33 -20 518 -20 535 0 570 3 670 54
105 53 192 156 232 275 20 61 20 69 18 1478 l-3 1418 -28 57 c-56 113 -153
186 -281 209 l-66 12 0 41 c-1 56 -30 116 -76 154 -41 34 -161 78 -299 110
l-80 19 -7 100 c-23 346 -260 587 -619 633 -93 11 -135 11 -227 -1z m292 -176
c132 -32 264 -129 326 -239 63 -110 87 -286 55 -409 -19 -72 -51 -131 -116
-215 -187 -242 -216 -290 -245 -404 l-16 -66 -49 0 -49 0 0 255 0 255 69 0
c38 0 77 3 86 6 25 10 47 62 40 95 -13 56 -27 59 -278 59 l-228 0 -24 -25
c-16 -15 -25 -36 -25 -55 0 -19 9 -40 25 -55 21 -22 33 -25 100 -25 l75 0 0
-255 0 -255 -48 0 -48 0 -12 59 c-19 92 -82 204 -188 336 -155 194 -187 264
-186 420 0 108 13 169 52 250 108 227 396 340 684 268z m731 -768 c44 -13 90
-31 103 -40 l22 -16 0 -1388 0 -1389 -91 29 c-241 75 -516 111 -859 112 -365
1 -670 -37 -910 -112 -36 -12 -68 -21 -73 -21 -4 0 -6 627 -5 1393 l3 1392 80
26 c139 46 124 50 172 -44 24 -46 87 -137 143 -207 104 -129 155 -218 165
-286 5 -38 4 -40 -42 -69 -31 -20 -56 -48 -77 -85 -27 -48 -31 -65 -31 -130 0
-58 6 -85 22 -116 30 -56 78 -103 133 -128 42 -20 62 -21 330 -21 320 0 353 5
421 63 58 50 89 120 89 202 0 102 -44 178 -139 240 l-23 15 22 65 c26 79 47
113 160 255 98 123 140 190 166 263 l18 49 60 -14 c34 -7 97 -25 141 -38z
m-4083 -1667 l3 -1393 31 -55 c22 -38 46 -64 79 -85 l48 -30 974 -3 973 -2 0
-110 0 -110 -1038 2 -1037 3 -67 33 c-79 39 -129 93 -158 169 -20 53 -20 76
-20 1429 0 1347 0 1376 20 1413 33 65 109 120 182 130 4 1 9 -626 10 -1391z
m3440 932 c79 -22 105 -114 49 -171 l-29 -29 -276 0 -276 0 -32 29 c-27 24
-33 36 -33 69 0 48 31 87 79 101 44 13 473 13 518 1z m-1992 -2131 c234 -20
460 -65 603 -119 54 -20 57 -23 57 -56 l0 -34 -947 0 -947 0 -23 22 c-13 12
-23 27 -23 34 0 8 51 29 123 53 314 102 726 138 1157 100z m2038 6 c134 -6
228 -18 372 -46 128 -25 350 -96 350 -111 0 -7 -10 -22 -22 -35 l-21 -23 -949
0 -948 0 0 34 c0 33 3 36 58 56 217 83 693 147 982 134 36 -2 116 -6 178 -9z"/>
<path d="M3350 2170 c-179 -22 -394 -83 -441 -126 -26 -23 -26 -94 -1 -117 25
-23 84 -21 131 2 173 89 675 119 961 58 63 -13 145 -36 181 -51 86 -34 131
-34 158 0 53 68 10 117 -145 167 -174 56 -268 69 -534 72 -129 2 -269 0 -310
-5z"/>
<path d="M3455 1624 c-224 -22 -379 -54 -481 -99 -70 -31 -84 -47 -84 -96 0
-29 6 -42 27 -59 33 -26 62 -23 151 15 131 55 423 92 643 81 156 -7 330 -36
429 -71 131 -46 137 -48 164 -41 36 9 62 63 49 102 -16 53 -188 117 -395 149
-99 15 -420 27 -503 19z"/>
<path d="M1237 3280 c-108 -13 -223 -39 -326 -72 -141 -45 -183 -99 -128 -163
26 -31 76 -36 123 -12 40 21 152 52 259 74 72 14 138 18 330 18 270 -1 377
-14 525 -67 163 -57 215 -47 208 43 -4 54 -30 74 -147 113 -151 49 -292 68
-546 71 -126 2 -261 0 -298 -5z"/>
<path d="M1285 2729 c-188 -19 -407 -73 -482 -119 -57 -34 -51 -123 10 -144
22 -8 48 -3 135 27 135 46 229 65 399 79 234 20 562 -17 708 -79 86 -36 115
-39 148 -13 21 17 27 30 27 60 0 23 -7 45 -17 56 -43 42 -205 92 -386 119
-133 19 -421 27 -542 14z"/>
<path d="M1270 2173 c-195 -19 -434 -85 -482 -133 -33 -34 -36 -68 -7 -104 27
-34 72 -34 158 0 234 94 709 111 1010 37 36 -9 90 -27 120 -40 103 -44 161
-25 161 55 0 32 -6 45 -26 61 -57 45 -263 101 -446 120 -89 10 -405 13 -488 4z"/>
<path d="M1275 1619 c-184 -19 -397 -72 -472 -118 -54 -34 -53 -118 2 -143 29
-13 44 -10 175 37 141 49 281 68 515 68 235 1 411 -22 535 -70 125 -48 136
-50 167 -27 29 22 39 58 28 101 -11 46 -181 106 -393 139 -120 18 -436 26
-557 13z"/>
</g>
</svg>
