<?xml version="1.0" standalone="no"?>
<!DOCTYPE svg PUBLIC "-//W3C//DTD SVG 20010904//EN"
 "http://www.w3.org/TR/2001/REC-SVG-20010904/DTD/svg10.dtd">
<svg version="1.0" xmlns="http://www.w3.org/2000/svg"
 width="512.000000pt" height="512.000000pt" viewBox="0 0 512.000000 512.000000"
 preserveAspectRatio="xMidYMid meet">
<metadata>
Created by potrace 1.16, written by Peter Selinger 2001-2019
</metadata>
<g transform="translate(0.000000,512.000000) scale(0.100000,-0.100000)"
fill="#000000" stroke="none">
<path d="M2399 4741 c-152 -28 -311 -91 -430 -171 -94 -63 -235 -212 -293
-308 -86 -145 -136 -330 -136 -507 l0 -73 -192 -4 c-189 -3 -194 -4 -248 -31
-96 -50 -164 -130 -199 -237 -11 -35 -191 -2503 -194 -2656 -2 -154 74 -279
211 -346 l67 -33 1575 0 1575 0 57 27 c115 54 199 162 218 281 12 77 -173
2661 -196 2737 -30 100 -96 177 -194 227 -54 27 -59 28 -246 31 l-191 3 -7 99
c-10 161 -41 282 -106 410 -131 260 -361 448 -641 526 -76 21 -121 26 -239 29
-80 2 -166 0 -191 -4z m306 -336 c39 -8 112 -35 163 -60 217 -108 361 -327
379 -576 l6 -89 -693 0 -693 0 6 89 c13 178 80 325 209 453 128 127 292 196
473 197 44 0 112 -6 150 -14z m-1156 -1474 c-4 -423 -4 -430 17 -458 38 -51
81 -73 143 -73 67 0 104 21 138 77 l23 38 0 423 0 422 690 0 690 0 0 -420 c0
-399 1 -423 20 -459 54 -107 208 -111 284 -8 20 28 21 40 24 458 l3 430 144
-3 c117 -2 147 -6 161 -19 24 -25 208 -2583 187 -2616 l-13 -23 -1500 0 -1500
0 -13 23 c-12 19 -2 191 78 1309 51 707 96 1291 100 1298 14 23 52 29 189 29
l138 1 -3 -429z"/>
</g>
</svg>
