<?xml version="1.0" standalone="no"?>
<!DOCTYPE svg PUBLIC "-//W3C//DTD SVG 20010904//EN"
 "http://www.w3.org/TR/2001/REC-SVG-20010904/DTD/svg10.dtd">
<svg version="1.0" xmlns="http://www.w3.org/2000/svg"
 width="512.000000pt" height="512.000000pt" viewBox="0 0 512.000000 512.000000"
 preserveAspectRatio="xMidYMid meet">
<metadata>
Created by potrace 1.16, written by Peter Selinger 2001-2019
</metadata>
<g transform="translate(0.000000,512.000000) scale(0.100000,-0.100000)"
fill="#000000" stroke="none">
<path d="M2888 4677 c-49 -19 -95 -57 -205 -170 -120 -121 -148 -178 -141
-281 3 -46 13 -87 27 -116 16 -31 188 -210 569 -592 l546 -548 -1734 -2 -1735
-3 -50 -23 c-65 -30 -112 -75 -141 -137 -22 -47 -24 -61 -24 -241 l0 -191 31
-61 c32 -64 79 -110 146 -140 36 -16 151 -17 1778 -20 l1739 -2 -561 -563
c-618 -619 -593 -590 -593 -717 0 -92 39 -156 173 -287 62 -61 128 -119 147
-129 49 -27 210 -27 260 -1 48 26 1934 1911 1968 1967 24 40 27 55 27 140 0
73 -4 103 -18 130 -26 48 -1911 1935 -1966 1968 -36 21 -59 26 -125 29 -52 2
-94 -2 -118 -10z"/>
</g>
</svg>
