<?xml version="1.0" standalone="no"?>
<!DOCTYPE svg PUBLIC "-//W3C//DTD SVG 20010904//EN"
 "http://www.w3.org/TR/2001/REC-SVG-20010904/DTD/svg10.dtd">
<svg version="1.0" xmlns="http://www.w3.org/2000/svg"
 width="512.000000pt" height="512.000000pt" viewBox="0 0 512.000000 512.000000"
 preserveAspectRatio="xMidYMid meet">
<metadata>
Created by potrace 1.16, written by Peter Selinger 2001-2019
</metadata>
<g transform="translate(0.000000,512.000000) scale(0.100000,-0.100000)"
fill="#000000" stroke="none">
<path d="M1737 4987 c-48 -15 -102 -59 -122 -98 -9 -16 -31 -106 -50 -200 -41
-204 -55 -251 -95 -333 -67 -135 -197 -257 -335 -315 -39 -17 -158 -48 -270
-71 -210 -44 -248 -59 -289 -113 -61 -83 -60 -182 1 -265 37 -50 89 -70 276
-107 95 -20 198 -44 230 -55 97 -32 187 -89 262 -165 124 -125 159 -206 219
-500 40 -196 60 -241 125 -279 104 -61 252 -23 301 78 11 23 35 118 54 212 59
289 98 375 223 495 136 132 211 161 608 239 130 26 188 87 193 204 3 60 0 78
-21 116 -38 72 -85 94 -283 135 -95 19 -199 43 -232 54 -172 53 -322 184 -402
350 -35 73 -52 132 -90 326 -36 183 -58 231 -123 269 -51 30 -128 40 -180 23z
m106 -179 c8 -13 29 -96 46 -185 45 -229 73 -308 155 -436 44 -68 144 -168
219 -219 115 -78 219 -114 467 -163 149 -29 180 -43 180 -80 0 -36 -30 -50
-160 -74 -63 -12 -153 -31 -200 -43 -259 -63 -456 -221 -571 -458 -35 -72 -52
-133 -93 -334 -19 -92 -40 -174 -46 -182 -16 -18 -54 -18 -73 0 -7 8 -26 77
-41 153 -51 261 -82 352 -162 473 -86 132 -236 252 -384 309 -41 16 -163 48
-270 71 -107 22 -195 42 -196 43 -14 20 -20 46 -13 64 8 23 15 26 104 43 172
33 338 75 400 102 233 101 408 307 473 553 11 44 33 141 47 215 15 74 31 143
36 153 14 25 65 22 82 -5z"/>
<path d="M3879 4967 c-9 -7 -21 -22 -27 -34 -15 -28 -16 -244 -1 -277 23 -50
103 -57 134 -13 12 16 15 54 15 158 0 137 0 138 -26 158 -30 23 -71 27 -95 8z"/>
<path d="M3503 4589 c-28 -15 -46 -59 -37 -93 12 -49 36 -56 182 -56 128 0
134 1 157 25 30 29 32 74 6 106 -18 23 -26 24 -153 26 -81 2 -142 -2 -155 -8z"/>
<path d="M4046 4579 c-35 -27 -36 -86 -3 -117 22 -20 33 -22 158 -22 129 0
137 1 157 23 32 34 30 89 -4 116 -24 19 -40 21 -154 21 -114 0 -130 -2 -154
-21z"/>
<path d="M3904 4422 c-12 -2 -30 -12 -40 -24 -17 -18 -19 -38 -19 -160 0 -135
1 -140 24 -159 32 -26 82 -25 109 4 20 22 22 34 22 156 0 73 -4 141 -10 151
-11 21 -55 37 -86 32z"/>
<path d="M4085 3621 c-95 -24 -118 -61 -160 -263 -42 -197 -77 -276 -161 -360
-86 -86 -147 -113 -351 -159 -189 -42 -228 -60 -259 -121 -21 -41 -21 -126 1
-172 30 -62 73 -83 254 -121 221 -46 316 -96 398 -208 58 -79 81 -138 114
-299 36 -176 60 -228 119 -258 51 -26 129 -26 180 0 56 29 83 84 109 220 41
216 76 295 171 390 80 80 158 115 350 155 179 38 220 57 250 116 25 47 26 128
4 176 -28 59 -70 81 -200 109 -256 54 -315 79 -407 171 -85 85 -120 161 -158
343 -39 191 -58 234 -119 265 -34 17 -99 25 -135 16z m59 -169 c3 -5 21 -79
40 -166 19 -88 48 -186 64 -220 77 -163 222 -292 389 -344 52 -17 298 -72 319
-72 7 0 4 -29 -3 -33 -5 -3 -75 -19 -158 -37 -82 -18 -177 -43 -210 -57 -130
-54 -254 -168 -320 -294 -43 -82 -57 -127 -90 -290 -40 -193 -49 -189 -100 41
-28 126 -46 183 -76 241 -69 133 -186 242 -324 301 -33 15 -127 41 -210 58
-82 18 -153 34 -157 37 -8 4 -11 33 -4 33 14 0 258 53 297 64 132 40 255 124
335 229 81 107 110 188 164 460 11 53 29 73 44 49z"/>
<path d="M400 1980 c-18 -18 -20 -33 -20 -160 0 -127 2 -142 20 -160 26 -26
80 -26 111 -1 23 19 24 24 24 159 0 124 -2 142 -19 161 -26 28 -88 29 -116 1z"/>
<path d="M2347 1766 c-69 -25 -80 -43 -126 -202 -36 -123 -117 -195 -264 -232
-96 -25 -124 -42 -148 -95 -23 -51 -24 -85 -4 -134 20 -50 67 -80 162 -104
153 -38 233 -120 269 -276 26 -113 76 -163 164 -163 89 0 139 51 166 169 32
143 122 234 266 270 43 10 93 29 112 40 67 42 84 153 35 223 -26 36 -55 51
-144 72 -137 34 -221 109 -256 230 -11 39 -25 88 -31 109 -14 45 -54 82 -106
97 -46 12 -48 12 -95 -4z m114 -347 c35 -65 103 -138 164 -177 22 -14 76 -38
119 -53 l80 -27 -41 -7 c-76 -12 -181 -71 -243 -135 -60 -61 -113 -154 -125
-222 -4 -21 -11 -38 -15 -38 -4 0 -11 17 -15 38 -29 159 -185 315 -355 354
l-51 12 78 26 c88 29 145 63 197 114 67 68 94 118 143 266 3 8 11 -9 19 -39 8
-30 28 -80 45 -112z"/>
<path d="M20 1600 c-28 -28 -27 -90 1 -116 19 -17 37 -19 161 -19 135 0 140 1
159 24 25 31 25 85 -1 111 -18 18 -33 20 -160 20 -127 0 -142 -2 -160 -20z"/>
<path d="M571 1594 c-34 -43 -21 -102 26 -123 31 -14 230 -14 271 0 52 18 65
85 24 132 -13 15 -34 17 -158 17 -142 0 -143 0 -163 -26z"/>
<path d="M406 1429 c-26 -20 -26 -21 -26 -163 0 -124 2 -145 18 -158 46 -41
113 -28 131 24 14 41 14 240 0 271 -21 47 -80 60 -123 26z"/>
<path d="M3894 1042 c-12 -2 -30 -12 -40 -24 -17 -18 -19 -38 -19 -160 0 -135
1 -140 24 -159 32 -26 82 -25 109 4 20 22 22 34 22 156 0 73 -4 141 -10 151
-11 21 -55 37 -86 32z"/>
<path d="M3514 664 c-29 -7 -52 -34 -60 -71 -4 -23 0 -36 19 -59 25 -28 28
-29 138 -32 131 -4 181 6 197 43 18 38 15 61 -12 92 -24 28 -26 28 -143 30
-65 1 -128 -1 -139 -3z"/>
<path d="M4054 656 c-48 -21 -60 -84 -25 -127 19 -23 24 -24 161 -24 137 0
142 1 161 24 21 25 25 71 9 101 -5 10 -24 23 -41 29 -45 16 -227 13 -265 -3z"/>
<path d="M3860 470 c-28 -28 -32 -54 -28 -184 3 -104 5 -118 25 -138 31 -31
89 -30 114 1 17 20 19 41 19 160 0 131 -1 139 -23 159 -29 28 -80 29 -107 2z"/>
</g>
</svg>
